<?xml version="1.0" encoding="utf-8"?>
<!-- Generator: Adobe Illustrator 25.0.0, SVG Export Plug-In . SVG Version: 6.00 Build 0)  -->
<svg version="1.1" id="Layer_1" xmlns="http://www.w3.org/2000/svg" xmlns:xlink="http://www.w3.org/1999/xlink" x="0px" y="0px"
	 viewBox="0 0 10 10" style="enable-background:new 0 0 10 10;" xml:space="preserve">
<style type="text/css">
	.st0{fill:#9B9B9B;}
</style>
<g>
	<path class="st0" d="M2.89,1.29c0.29,0,0.58,0,0.88,0c0.43,0,0.73,0.3,0.73,0.72c0,0.58,0,1.16,0,1.74c0,0.42-0.3,0.72-0.72,0.72
		c-0.59,0-1.18,0-1.76,0c-0.43,0-0.72-0.29-0.72-0.72c0-0.58,0-1.16,0-1.74c0-0.43,0.3-0.72,0.72-0.72C2.3,1.29,2.6,1.29,2.89,1.29z
		 M3.95,2.88c0-0.28,0-0.57,0-0.85c0-0.15-0.05-0.2-0.2-0.2c-0.58,0-1.15,0-1.73,0c-0.14,0-0.2,0.06-0.2,0.2c0,0.57,0,1.14,0,1.71
		c0,0.14,0.06,0.2,0.2,0.2c0.58,0,1.16,0,1.74,0c0.14,0,0.2-0.06,0.2-0.2C3.96,3.46,3.95,3.17,3.95,2.88z"/>
	<path class="st0" d="M7.11,8.71c-0.29,0-0.58,0-0.88,0c-0.43,0-0.73-0.3-0.73-0.73c0-0.58,0-1.15,0-1.73
		c0-0.43,0.29-0.72,0.72-0.73c0.59,0,1.18,0,1.77,0c0.42,0,0.72,0.29,0.72,0.72c0,0.58,0,1.17,0,1.75c0,0.42-0.3,0.71-0.72,0.71
		C7.69,8.71,7.4,8.71,7.11,8.71z M7.1,8.18c0.29,0,0.58,0,0.87,0c0.15,0,0.2-0.06,0.21-0.2c0-0.57,0-1.14,0-1.71
		c0-0.15-0.06-0.2-0.21-0.2c-0.58,0-1.15,0-1.73,0c-0.15,0-0.2,0.05-0.2,0.2c0,0.57,0,1.14,0,1.71c0,0.15,0.05,0.2,0.2,0.2
		C6.53,8.18,6.81,8.18,7.1,8.18z"/>
	<path class="st0" d="M2.9,8.71c-0.29,0-0.58,0-0.87,0c-0.44,0-0.73-0.29-0.73-0.73c0-0.57,0-1.15,0-1.72
		c0-0.43,0.29-0.73,0.73-0.73c0.58,0,1.17,0,1.75,0c0.44,0,0.73,0.29,0.73,0.73c0,0.58,0,1.15,0,1.73c0,0.44-0.29,0.73-0.73,0.73
		C3.48,8.71,3.19,8.71,2.9,8.71z M2.9,8.18c0.29,0,0.58,0,0.87,0c0.14,0,0.2-0.06,0.2-0.2c0-0.57,0-1.14,0-1.71
		c0-0.14-0.06-0.2-0.2-0.2c-0.58,0-1.16,0-1.74,0c-0.14,0-0.19,0.06-0.19,0.2c0,0.57,0,1.14,0,1.71c0,0.15,0.05,0.2,0.2,0.2
		C2.32,8.18,2.61,8.18,2.9,8.18z"/>
	<path class="st0" d="M8.71,2.88c0,0.89-0.72,1.6-1.61,1.59c-0.87-0.01-1.58-0.73-1.57-1.6c0.01-0.89,0.72-1.59,1.62-1.59
		C8,1.3,8.71,2.02,8.71,2.88z M6.06,2.88c0,0.58,0.48,1.06,1.06,1.05c0.58,0,1.06-0.48,1.05-1.06c0-0.57-0.48-1.05-1.04-1.05
		C6.54,1.83,6.06,2.3,6.06,2.88z"/>
</g>
</svg>
