<svg xmlns="http://www.w3.org/2000/svg" width="205.585" height="170.849" viewBox="0 0 205.585 170.849">
  <g id="human-resources" transform="translate(-32.5 -64.72)">
    <g id="freepik--Window--inject-85" transform="translate(39.488 65.069)">
      <line id="Line_308" data-name="Line 308" x2="188.549" transform="translate(4.229 132.01)" fill="none" stroke="#263238" stroke-miterlimit="10" stroke-width="1"/>
      <line id="Line_309" data-name="Line 309" x2="188.549" transform="translate(4.229 96.316)" fill="none" stroke="#263238" stroke-miterlimit="10" stroke-width="1"/>
      <line id="Line_310" data-name="Line 310" x2="188.549" transform="translate(4.229 60.618)" fill="none" stroke="#263238" stroke-miterlimit="10" stroke-width="1"/>
      <line id="Line_311" data-name="Line 311" x2="188.549" transform="translate(4.229 24.92)" fill="none" stroke="#263238" stroke-miterlimit="10" stroke-width="1"/>
      <line id="Line_312" data-name="Line 312" y2="127.449" transform="translate(47.099 4.65)" fill="none" stroke="#263238" stroke-miterlimit="10" stroke-width="1"/>
      <line id="Line_313" data-name="Line 313" y2="127.449" transform="translate(160.429 4.65)" fill="none" stroke="#263238" stroke-miterlimit="10" stroke-width="1"/>
      <line id="Line_314" data-name="Line 314" x1="1.399" y2="1.478" transform="translate(49.905 51.894)" fill="none" stroke="#263238" stroke-miterlimit="10" stroke-width="1"/>
      <line id="Line_315" data-name="Line 315" x1="22.207" y2="23.423" transform="translate(52.998 26.688)" fill="none" stroke="#263238" stroke-miterlimit="10" stroke-width="1"/>
      <line id="Line_316" data-name="Line 316" x1="12.476" y2="12.823" transform="translate(64.113 30.501)" fill="none" stroke="#263238" stroke-miterlimit="10" stroke-width="1"/>
      <line id="Line_317" data-name="Line 317" x1="1.399" y2="1.478" transform="translate(163.877 51.894)" fill="none" stroke="#263238" stroke-miterlimit="10" stroke-width="1"/>
      <line id="Line_318" data-name="Line 318" x1="22.207" y2="23.423" transform="translate(166.969 26.688)" fill="none" stroke="#263238" stroke-miterlimit="10" stroke-width="1"/>
      <line id="Line_319" data-name="Line 319" x1="12.476" y2="12.823" transform="translate(178.084 30.501)" fill="none" stroke="#263238" stroke-miterlimit="10" stroke-width="1"/>
      <line id="Line_320" data-name="Line 320" x1="1.399" y2="1.478" transform="translate(0 123.982)" fill="none" stroke="#263238" stroke-miterlimit="10" stroke-width="1"/>
      <line id="Line_321" data-name="Line 321" x1="22.207" y2="23.428" transform="translate(3.092 98.772)" fill="none" stroke="#263238" stroke-miterlimit="10" stroke-width="1"/>
      <line id="Line_322" data-name="Line 322" x1="12.476" y2="12.823" transform="translate(14.207 102.585)" fill="none" stroke="#263238" stroke-miterlimit="10" stroke-width="1"/>
      <line id="Line_323" data-name="Line 323" x1="1.403" y2="1.478" transform="translate(18.366 21.397)" fill="none" stroke="#263238" stroke-miterlimit="10" stroke-width="1"/>
      <line id="Line_325" data-name="Line 325" x1="12.476" y2="12.823" transform="translate(32.578 0)" fill="none" stroke="#263238" stroke-miterlimit="10" stroke-width="1"/>
      <line id="Line_326" data-name="Line 326" x1="1.403" y2="1.478" transform="translate(122.219 21.397)" fill="none" stroke="#263238" stroke-miterlimit="10" stroke-width="1"/>
      <line id="Line_328" data-name="Line 328" x1="12.476" y2="12.823" transform="translate(136.431 0)" fill="none" stroke="#263238" stroke-miterlimit="10" stroke-width="1"/>
      <line id="Line_329" data-name="Line 329" x1="1.399" y2="1.478" transform="translate(90.109 88.976)" fill="none" stroke="#263238" stroke-miterlimit="10" stroke-width="1"/>
      <line id="Line_330" data-name="Line 330" x1="22.207" y2="23.423" transform="translate(93.201 63.771)" fill="none" stroke="#263238" stroke-miterlimit="10" stroke-width="1"/>
      <line id="Line_331" data-name="Line 331" x1="12.476" y2="12.823" transform="translate(104.316 67.584)" fill="none" stroke="#263238" stroke-miterlimit="10" stroke-width="1"/>
    </g>
    <g id="freepik--character-1--inject-85" transform="translate(104.739 83.262)">
      <path id="Path_35241" data-name="Path 35241" d="M195.034,156.68H221.2a8.655,8.655,0,0,1,8.654,8.654V240.89H186.38V165.33A8.655,8.655,0,0,1,195.034,156.68Z" transform="translate(-181.689 -144.524)" fill="#263238" stroke="#263238" stroke-linecap="round" stroke-linejoin="round" stroke-width="1"/>
      <path id="Path_35242" data-name="Path 35242" d="M230.44,383.388l-22.965-6.755v-7.518h-1.3V341.36H202.1v27.755h-1.3v7.316l-22.965,6.956v1.1h.309a2.175,2.175,0,0,0-.267,1.057,2.236,2.236,0,1,0,3.448-1.871l.047-.047,21.051-2.531v3.031a2.236,2.236,0,1,0,3.452,0V381.1l21,2.526a2.236,2.236,0,1,0,3.106.87h.468Z" transform="translate(-177.144 -236.147)" fill="#263238" stroke="#263238" stroke-linecap="round" stroke-linejoin="round" stroke-width="1"/>
      <rect id="Rectangle_1254" data-name="Rectangle 1254" width="46.79" height="10.24" rx="5.12" transform="translate(3.438 101.081)" fill="#fff" stroke="#263238" stroke-linecap="round" stroke-linejoin="round" stroke-width="1"/>
      <rect id="Rectangle_1255" data-name="Rectangle 1255" width="32.498" height="18.071" transform="translate(10.974 83.896)" fill="#fff" stroke="#263238" stroke-linecap="round" stroke-linejoin="round" stroke-width="1"/>
      <path id="Path_35243" data-name="Path 35243" d="M222.517,189.91l-4.977,1.951s1.8,11.185,4.21,16.958,11.185,14.937,11.185,14.937,4.547-6.638,6.133-11.906-.07-20.064-.07-20.064a10.467,10.467,0,0,0-3.682-1.3C233.057,190.125,222.517,189.91,222.517,189.91Z" transform="translate(-198.272 -160.549)" fill="#fff" stroke="#263238" stroke-linecap="round" stroke-linejoin="round" stroke-width="1"/>
      <path id="Path_35244" data-name="Path 35244" d="M236.8,203.031l2.3,4.421-3.817,8.425,6.133,9.234,3.752-8.444-4.547-9.379L243,203.172l-3.392-3.392Z" transform="translate(-207.713 -165.662)" fill="#263238" stroke="#263238" stroke-linecap="round" stroke-linejoin="round" stroke-width="1"/>
      <path id="Path_35245" data-name="Path 35245" d="M226.2,188.83l-1.591.435-1.516,2.666,3.742,10.61,6.138-6.348,6.708,6.853s.8-10.68.8-11.906-1.081-1.661-1.871-1.871S226.2,188.83,226.2,188.83Z" transform="translate(-201.226 -160.249)" fill="#fff" stroke="#263238" stroke-linecap="round" stroke-linejoin="round" stroke-width="1"/>
      <path id="Path_35246" data-name="Path 35246" d="M200.142,189.76A57.789,57.789,0,0,0,204.82,207.8a84.8,84.8,0,0,0,5.918,10.25c0-.215,3.822-11.545,3.967-15.372s.865-11.98.865-11.98,7.4,2.947,9.169,3.972c2.741,1.586,6.2,1.946,6.133,3.822-.028.683.44,5.146,1.034,10.586.094.865,4.739,8.29,4.837,9.188,1,9.061-2.386,12.879-2.554,12.921-.285.07-6.278,0-6.278,0s3.251,14.792,3.742,15.587l.505.791H206.378l-1.076-3.247-.959,3.247h-26.5l3.537-16.092h-3.9s-1.01-2.021.36-9.6,5.993-26.557,5.993-27.2S198.627,191.346,200.142,189.76Z" transform="translate(-176.762 -160.018)" fill="#03759a"/>
      <line id="Line_332" data-name="Line 332" x1="0.351" y2="17.061" transform="translate(28.54 68.517)" fill="none" stroke="#263238" stroke-linecap="round" stroke-linejoin="round" stroke-width="1"/>
      <path id="Path_35247" data-name="Path 35247" d="M236.855,220.654c4.262-3.967,6.138-11.906,6.138-11.906l-3.827-1.661,3.682-1.806-3.181-13.566c-1.8-1.553-2.858-1.511-2.807-1.17,0,0-.72,8.154-.865,11.98s-3.976,15.171-3.976,15.386a46.278,46.278,0,0,1-5.918-10.25c-3.9-10.507-4.65-16.841-4.762-18.053a.112.112,0,0,0-.119-.105.111.111,0,0,0-.059.021,11.8,11.8,0,0,0-2.807,1.4c-.262,1.871-.6,4.584-.833,7.569-.43,5.557-.43,8.009-.43,8.009l4.977,1.23-3.537,2.021s3.9,3.967,7.143,6.928a27.051,27.051,0,0,0,5.408,4.037l-4.159,6.395A40.644,40.644,0,0,0,236.855,220.654Z" transform="translate(-198.032 -160.286)" fill="#03759a"/>
      <path id="Path_35248" data-name="Path 35248" d="M228.18,178.65v6.208a8.261,8.261,0,0,0,7.218,5.553c5.918.384,6.928-5.338,6.928-5.338v-5.487S231.37,182.257,228.18,178.65Z" transform="translate(-203.934 -155.095)" fill="#fff" stroke="#263238" stroke-linecap="round" stroke-linejoin="round" stroke-width="1"/>
      <path id="Path_35249" data-name="Path 35249" d="M261.185,157.557s.215-2.807,1.946-2.807,1.736,3.247,1.3,4.547-2.671,2.236-3.392,1.226" transform="translate(-221.422 -143.497)" fill="#fff" stroke="#263238" stroke-linecap="round" stroke-linejoin="round" stroke-width="1"/>
      <path id="Path_35250" data-name="Path 35250" d="M234.214,130.707s-6.376-.234-8.58,1.4-1.74,6.03-1.74,7.419,1.043,13.332,1.74,15.073,5.773,4.388,10.2,3.368,5.8-4.173,6.025-5.8.234-14.034,0-17.271S237.339,131.053,234.214,130.707Z" transform="translate(-201.632 -130.695)" fill="#fff" stroke="#263238" stroke-linecap="round" stroke-linejoin="round" stroke-width="1"/>
      <path id="Path_35251" data-name="Path 35251" d="M241.918,136.171c0-.515-.037-.936-.066-1.291-.229-3.247-4.519-3.827-7.649-4.173,0,0-6.376-.234-8.58,1.4s-1.74,6.03-1.74,7.419c0,.557.168,2.807.416,5.408a.823.823,0,0,0,1.207-.533c.468-1.277-.229-2.433.351-4.056s.809-2.666,2.2-3.48a11.966,11.966,0,0,1,2.779-1.155s-2.9,3.359,3.48,3.242C238.461,138.861,240.795,138,241.918,136.171Z" transform="translate(-201.626 -130.695)" fill="#263238" stroke="#263238" stroke-linecap="round" stroke-linejoin="round" stroke-width="1"/>
      <path id="Path_35252" data-name="Path 35252" d="M245.906,155.05s1.081,5.122.07,5.614-1.656.65-2.526-1.081" transform="translate(-212.061 -143.657)" fill="none" stroke="#263238" stroke-linecap="round" stroke-linejoin="round" stroke-width="0.5"/>
      <path id="Path_35253" data-name="Path 35253" d="M236.668,166.92s-.22,2.386,4.617,2.021" transform="translate(-208.451 -149.974)" fill="none" stroke="#263238" stroke-linecap="round" stroke-linejoin="round" stroke-width="0.5"/>
      <path id="Path_35254" data-name="Path 35254" d="M238.846,154.253c0,.5-.211.9-.468.9s-.468-.407-.468-.9.211-.9.468-.9S238.846,153.752,238.846,154.253Z" transform="translate(-209.113 -142.752)" fill="#263238"/>
      <path id="Path_35255" data-name="Path 35255" d="M254.346,154.253c0,.5-.211.9-.468.9s-.468-.407-.468-.9.211-.9.468-.9S254.346,153.752,254.346,154.253Z" transform="translate(-217.362 -142.752)" fill="#263238"/>
      <path id="Path_35256" data-name="Path 35256" d="M236.251,155.886h-3.92a.875.875,0,0,1-.856-.711l-.515-2.755h6.493l-.337,2.7A.874.874,0,0,1,236.251,155.886Z" transform="translate(-205.414 -142.257)" fill="none" stroke="#263238" stroke-linecap="round" stroke-linejoin="round" stroke-width="0.5"/>
      <path id="Path_35257" data-name="Path 35257" d="M254.146,155.886h-3.92a.87.87,0,0,1-.856-.711l-.519-2.755h6.5l-.346,2.7A.874.874,0,0,1,254.146,155.886Z" transform="translate(-214.935 -142.257)" fill="none" stroke="#263238" stroke-linecap="round" stroke-linejoin="round" stroke-width="0.5"/>
      <line id="Line_333" data-name="Line 333" x2="1.876" transform="translate(32.039 10.163)" fill="none" stroke="#263238" stroke-linecap="round" stroke-linejoin="round" stroke-width="0.5"/>
      <line id="Line_334" data-name="Line 334" x1="3.102" y2="1.371" transform="translate(22.445 10.163)" fill="none" stroke="#263238" stroke-linecap="round" stroke-linejoin="round" stroke-width="0.5"/>
      <path id="Path_35258" data-name="Path 35258" d="M221.9,157.557s-.215-2.807-1.951-2.807-1.731,3.247-1.3,4.547,2.666,2.236,3.392,1.226" transform="translate(-198.735 -143.497)" fill="#fff" stroke="#263238" stroke-linecap="round" stroke-linejoin="round" stroke-width="1"/>
      <path id="Path_35259" data-name="Path 35259" d="M254.515,233.945a8.093,8.093,0,0,0-3.462-1.932,2.61,2.61,0,0,0-1.305-.1,38.235,38.235,0,0,1-4.178-1.254c-.72-.215-1.156.505-.936,1.3s1.759,1.469,2.339,1.614.332.159.332.159.936,2.311.505,3.176-1.951,2.807-1.446,4.187a2.746,2.746,0,0,0,2.886,2.091c1.586,0,2.526.07,2.886,0s6.783,3.1,6.081,3.176-.29-6.423-.29-6.423Z" transform="translate(-212.661 -181.464)" fill="#fff" stroke="#263238" stroke-linecap="round" stroke-linejoin="round" stroke-width="1"/>
      <path id="Path_35260" data-name="Path 35260" d="M234.66,237.945a23.651,23.651,0,0,0,5.052-3.321c1.661-1.661,2.236-2.091,2.807-2.236a13.637,13.637,0,0,0,3.462-1.3c.575-.505,1.01.435.145,1.155a14.106,14.106,0,0,1-2.021,1.371c-.36.22-.72,1.23-.72,1.23s3.537-1.516,4.762-1.155,2.442,1.455,2.367,2.1-.3.337-1.095.262a6.1,6.1,0,0,0-2.807-.056c-.884.36-1.871,1.23-1.871,1.591s1.01.575,1.806.505a7.335,7.335,0,0,1,2.161-.145c.791.145,1.446.575,1.516,1.01s-.285.43-1.155.505a8.333,8.333,0,0,0-2.886.505c-.505.36-3.1,1.586-2.666,2.021s.692.435,1.558.435,1.792-.664,2.3-.627c.678.051,1.043.1,1.043.1s1.2.051,1.095.524c-.168.758-.571.781-2.316.861a12.535,12.535,0,0,0-2.957.22,12.163,12.163,0,0,1-3.247.575,24.212,24.212,0,0,1-5.848-.865Z" transform="translate(-207.383 -181.677)" fill="#fff" stroke="#263238" stroke-linecap="round" stroke-linejoin="round" stroke-width="1"/>
      <path id="Path_35261" data-name="Path 35261" d="M256.8,234.243s-1.46-1.361-2.3-1.4-3.392,2.194-3.742,3.031.468.519,1.146.313,2.507-1.048,3.134-1.305a2.4,2.4,0,0,1,1.651-.173" transform="translate(-215.909 -182.804)" fill="#fff" stroke="#263238" stroke-linecap="round" stroke-linejoin="round" stroke-width="1"/>
      <path id="Path_35262" data-name="Path 35262" d="M260.605,241.471s-2.086-1.043-3.392-.468-2.924,1.726-2.924,2.245.262.421,1.4.365,3.2-.388,3.48-.4a7.237,7.237,0,0,1,1.221.248" transform="translate(-217.83 -186.894)" fill="#fff" stroke="#263238" stroke-linecap="round" stroke-linejoin="round" stroke-width="1"/>
      <path id="Path_35263" data-name="Path 35263" d="M189.847,215.139l-1.806,9.67s15.662-3.106,16.237-2.671,1.1,11.91,1.1,11.91-20.223,3.532-22.6,4.327-4.837.936-5.7.215-.936-2.526-.29-6.081,6.858-29.369,6.858-29.369" transform="translate(-176.351 -167.18)" fill="#03759a"/>
      <path id="Path_35264" data-name="Path 35264" d="M277.048,227.4l.65,11.04-5.2-.215-.5,9.15s14.324,3.335,15.12,3.742.65-.43,1.586-1.806a12.255,12.255,0,0,0,1.661-5.614c-.075-1.286-3.031-5.614-3.1-5.412" transform="translate(-227.255 -179.674)" fill="#03759a"/>
      <line id="Line_335" data-name="Line 335" x2="4.837" transform="translate(50.443 58.865)" fill="none" stroke="#263238" stroke-linecap="round" stroke-linejoin="round" stroke-width="1"/>
      <line id="Line_336" data-name="Line 336" x1="6.423" y2="2.236" transform="translate(5.267 58.152)" fill="none" stroke="#263238" stroke-linecap="round" stroke-linejoin="round" stroke-width="1"/>
      <path id="Path_35265" data-name="Path 35265" d="M198.66,415.717s-1.048,4.5-2.512,6.081-2.807,2.62-2.723,3.873l.1,1.258H208.6v-3.78c0-2.2-.936-6.081-.936-7.639s-9.422.1-9.422.1" transform="translate(-185.436 -275.255)" fill="#263238" stroke="#263238" stroke-linecap="round" stroke-linejoin="round" stroke-width="1"/>
      <path id="Path_35266" data-name="Path 35266" d="M193.787,435.29a2.013,2.013,0,0,0-.36,1.254l.1,1.258H208.6V435.29Z" transform="translate(-185.438 -286.136)" fill="#586166" stroke="#263238" stroke-linecap="round" stroke-linejoin="round" stroke-width="1"/>
      <path id="Path_35267" data-name="Path 35267" d="M206.452,311.812s1.464-9.314-1.048-13.6-11.307-4.4-16.223-1.469-6.83,7.733-5.052,13.908,5.89,6.3,5.89,6.3-1.048,8.477-1.048,11.826,3.56,24.181,3.56,24.181H202.9S206.241,316.209,206.452,311.812Z" transform="translate(-180.143 -211.333)" fill="#586166" stroke="#263238" stroke-linecap="round" stroke-linejoin="round" stroke-width="1"/>
      <line id="Line_337" data-name="Line 337" y1="8.584" x2="1.043" transform="translate(9.875 94.777)" fill="none" stroke="#263238" stroke-linecap="round" stroke-linejoin="round" stroke-width="1"/>
      <path id="Path_35268" data-name="Path 35268" d="M258.441,415.717s1.048,4.5,2.512,6.081,2.807,2.62,2.723,3.873l-.1,1.258H248.5v-3.78c0-2.2.936-6.081.936-7.639s9.422.1,9.422.1" transform="translate(-214.749 -275.255)" fill="#263238" stroke="#263238" stroke-linecap="round" stroke-linejoin="round" stroke-width="1"/>
      <path id="Path_35269" data-name="Path 35269" d="M263.311,435.29a2.019,2.019,0,0,1,.365,1.254l-.1,1.258H248.5V435.29Z" transform="translate(-214.749 -286.136)" fill="#586166" stroke="#263238" stroke-linecap="round" stroke-linejoin="round" stroke-width="1"/>
      <path id="Path_35270" data-name="Path 35270" d="M241.3,311.812s-1.464-9.314,1.048-13.6,11.307-4.4,16.223-1.469,6.872,7.733,5.09,13.908-5.927,6.3-5.927,6.3,1.048,8.477,1.048,11.826-3.56,24.181-3.56,24.181H244.857S241.508,316.209,241.3,311.812Z" transform="translate(-210.69 -211.333)" fill="#586166" stroke="#263238" stroke-linecap="round" stroke-linejoin="round" stroke-width="1"/>
      <line id="Line_338" data-name="Line 338" x1="1.048" y1="8.584" transform="translate(45.994 94.777)" fill="none" stroke="#263238" stroke-linecap="round" stroke-linejoin="round" stroke-width="1"/>
    </g>
    <g id="freepik--Table--inject-85" transform="translate(48.19 71.81)">
      <path id="Path_35271" data-name="Path 35271" d="M285.108,94.17h20.7a2.208,2.208,0,0,1,2.208,2.208h0v9.609a2.208,2.208,0,0,1-2.208,2.208H299.6l1.623,4.4-5.113-4.4h-11a2.208,2.208,0,0,1-2.208-2.208h0V96.378a2.208,2.208,0,0,1,2.208-2.208Z" transform="translate(-181.423 -94.17)" fill="#263238" stroke="#263238" stroke-linecap="round" stroke-linejoin="round" stroke-width="1"/>
      <circle id="Ellipse_579" data-name="Ellipse 579" cx="1.202" cy="1.202" r="1.202" transform="translate(118.018 5.548)" fill="#fff"/>
      <circle id="Ellipse_580" data-name="Ellipse 580" cx="1.202" cy="1.202" r="1.202" transform="translate(112.26 5.548)" fill="#fff"/>
      <circle id="Ellipse_581" data-name="Ellipse 581" cx="1.202" cy="1.202" r="1.202" transform="translate(106.506 5.548)" fill="#fff"/>
      <path id="Path_35272" data-name="Path 35272" d="M111.535,261.3l-3.635,7.677h10.306l3.635-7.3Z" transform="translate(-83.373 -180.058)" fill="#263238" stroke="#263238" stroke-linecap="round" stroke-linejoin="round" stroke-width="1"/>
      <path id="Path_35273" data-name="Path 35273" d="M138.3,261.3H115.67l3.64,7.677h22.623Z" transform="translate(-87.508 -180.058)" fill="#fff" stroke="#263238" stroke-linecap="round" stroke-linejoin="round" stroke-width="1"/>
      <rect id="Rectangle_1256" data-name="Rectangle 1256" width="5.099" height="65.628" transform="translate(5.478 97.462)" fill="#a3a3a3" stroke="#263238" stroke-linecap="round" stroke-linejoin="round" stroke-width="1"/>
      <rect id="Rectangle_1257" data-name="Rectangle 1257" width="5.099" height="65.628" transform="translate(168.695 97.63)" fill="#a3a3a3" stroke="#263238" stroke-linecap="round" stroke-linejoin="round" stroke-width="1"/>
      <rect id="Rectangle_1258" data-name="Rectangle 1258" width="171.666" height="63.252" transform="translate(4.369 86.679)" fill="#bcbcbc" stroke="#263238" stroke-linecap="round" stroke-linejoin="round" stroke-width="1"/>
      <rect id="Rectangle_1259" data-name="Rectangle 1259" width="171.666" height="6.582" transform="translate(4.369 88.525)" fill="#263238" stroke="#263238" stroke-linecap="round" stroke-linejoin="round" stroke-width="1"/>
      <rect id="Rectangle_1260" data-name="Rectangle 1260" width="180.409" height="3.925" transform="translate(0 88.562)" fill="#fff" stroke="#263238" stroke-linecap="round" stroke-linejoin="round" stroke-width="1"/>
    </g>
    <g id="freepik--Plants--inject-85" transform="translate(41.895 84.167)">
      <path id="Path_35274" data-name="Path 35274" d="M55.429,264.773s-11.588-25.965-9.066-26.718,7.808,3.386,7.808,3.386-15.5-43.667-11.494-47.033S54.171,208.33,54.171,208.33s-7.995-26.718-7.054-36.881,11.1-.374,11.1-.374-8.135-36.5-.585-38.387,7.3,41.773,7.3,41.773,2.479-31.231,5.506-22.579S67.1,189.516,67.1,189.516s4.149-9.784,6.456-.753-4.584,45.527-4.584,45.527,5.857-6.019,6.4,1.506-12.121,30.877-12.121,30.877l-7.167.733Z" transform="translate(-42.014 -132.629)" fill="#fff"/>
      <path id="Path_35275" data-name="Path 35275" d="M55.429,264.773s-11.588-25.965-9.066-26.718,7.808,3.386,7.808,3.386-15.5-43.667-11.494-47.033S54.171,208.33,54.171,208.33s-7.995-26.718-7.054-36.881,11.1-.374,11.1-.374-8.135-36.5-.585-38.387,7.3,41.773,7.3,41.773,2.479-31.231,5.506-22.579S67.1,189.516,67.1,189.516s4.149-9.784,6.456-.753-4.584,45.527-4.584,45.527,5.857-6.019,6.4,1.506-12.121,30.877-12.121,30.877l-7.167.733Z" transform="translate(-42.014 -132.629)" fill="#e5e5e5"/>
      <path id="Path_35276" data-name="Path 35276" d="M63.171,284.145s-9.66-17.168-7.868-20.387,7.143,4.28,7.143,4.28-12.163-30.407-10.371-33.261,7.485,9.656,7.485,9.656-2.143-41.85,1.431-40.418,3.958,21.454,3.958,21.454-2.147-47.576,1.076-46.144,2.858,54.368,2.858,54.368,6.451-20.387,7.513-11.068-8.229,34.337-8.229,34.337,8.944-19.671,10.016-9.3-7.153,29.687-7.153,29.687,3.218-7.868,3.218-3.574-2.5,9.655-2.5,9.655" transform="translate(-47.273 -150.8)" fill="none" stroke="#263238" stroke-linecap="round" stroke-linejoin="round" stroke-width="1"/>
      <rect id="Rectangle_1261" data-name="Rectangle 1261" width="20.448" height="17.692" transform="translate(8.498 133.21)" fill="#263238" stroke="#263238" stroke-miterlimit="10" stroke-width="1"/>
    </g>
    <g id="freepik--character-2--inject-85" transform="translate(172.207 82.055)">
      <path id="Path_35277" data-name="Path 35277" d="M338.314,143.765a25.145,25.145,0,0,0-2.409,5.024c-.313,1.567.21,2.2-.211,3.349s-2.194,1.156-2.194,2.306,1.254,2.2,1.675,2.512-.318,1.675.416,3.663,1.048,4.5,2.3,4.5a35.05,35.05,0,0,0,3.873-.421l.627,3.822,8.65-.786s-.1-3.742,2.2-5.338,6.858-10.572,4.135-16.434S343.23,138.951,338.314,143.765Z" transform="translate(-316.639 -134.846)" fill="#fff" stroke="#263238" stroke-linecap="round" stroke-linejoin="round" stroke-width="1"/>
      <path id="Path_35278" data-name="Path 35278" d="M337.259,132.692a7.95,7.95,0,0,0-.337,2.844,11.476,11.476,0,0,0,1.675,5.211c1.067,1.764,3.621,2.886,4.252,4.767.206.627.73,2.3,2.194,2.723s1.156.416.734,3.242.837,5.651,3.349,6.386a7.485,7.485,0,0,0,6.91-1.464c1.988-1.572,5.754-8.06,5.862-13.922.182-10.371-10.039-15.438-19.259-14.174A6.282,6.282,0,0,0,337.259,132.692Z" transform="translate(-318.451 -128.114)" fill="#263238" stroke="#263238" stroke-linecap="round" stroke-linejoin="round" stroke-width="1"/>
      <path id="Path_35279" data-name="Path 35279" d="M347.093,194.361a9.857,9.857,0,0,0-4.032.936c-1.17.617-5.235,4.5-6.283,5.146s-3.036.313-1.871.837,1.988.627,3.976-.1,6.175-2.2,7.429-2.2,5.862.627,6.283.734,3.139,1.357,3.139,1.357a17.341,17.341,0,0,0-2.928-4.393A7.793,7.793,0,0,0,347.093,194.361Z" transform="translate(-317.198 -161.88)" fill="#fff" stroke="#263238" stroke-linecap="round" stroke-linejoin="round" stroke-width="1"/>
      <path id="Path_35280" data-name="Path 35280" d="M353.19,166.482a1.076,1.076,0,0,0-.669,1.137,14.359,14.359,0,0,1-.07,4.154c-.416,1.778,1.806,1.778,2.292-1.137C355.062,168.709,354.332,166.075,353.19,166.482Z" transform="translate(-326.697 -148.511)" fill="#fff" stroke="#263238" stroke-linecap="round" stroke-linejoin="round" stroke-width="1"/>
      <path id="Path_35281" data-name="Path 35281" d="M308.692,218.11s-1.254.627-1.357,3.663-5.342,24.391-5.656,27.741,1.469,5.543,4.5,6.7,8.795,3.031,9.824,2.512,3.036-11.307,3.766-16.018-8.06-21.051-8.477-21.664S309.426,218.218,308.692,218.11Z" transform="translate(-299.685 -173.354)" fill="#fff" stroke="#263238" stroke-linecap="round" stroke-linejoin="round" stroke-width="1"/>
      <line id="Line_339" data-name="Line 339" x1="5.759" y2="8.584" transform="translate(10.055 70.365)" fill="none" stroke="#263238" stroke-linecap="round" stroke-linejoin="round" stroke-width="1"/>
      <path id="Path_35282" data-name="Path 35282" d="M355,352.06l7.27,40.231a.9.9,0,0,0,1.052.724.941.941,0,0,0,.109-.027h0a.908.908,0,0,0,.617-.978l-5.366-40.821Z" transform="translate(-328.081 -240.17)" fill="#fff" stroke="#263238" stroke-linecap="round" stroke-linejoin="round" stroke-width="1"/>
      <path id="Path_35283" data-name="Path 35283" d="M331.459,330.221s-2.723,36.737-2.723,37.785-2.807,12.037-2.807,12.037h7.518a10.94,10.94,0,0,0,.73-4.5c0-3.036.318-9.525.318-10.151s8.374-33.078,8.374-33.078-.421-3.247-4.5-5.146S332.086,329.384,331.459,330.221Z" transform="translate(-312.61 -227.122)" fill="#fff" stroke="#263238" stroke-linecap="round" stroke-linejoin="round" stroke-width="1"/>
      <path id="Path_35284" data-name="Path 35284" d="M334.183,419.094c0-2.774.262-8.42.309-9.861a4.37,4.37,0,0,0-5.646.65h0c-.061.936-.1,1.544-.1,1.665,0,1.048-2.807,12.037-2.807,12.037h7.513A10.862,10.862,0,0,0,334.183,419.094Z" transform="translate(-312.615 -270.673)" fill="#263238" stroke="#263238" stroke-linecap="round" stroke-linejoin="round" stroke-width="1"/>
      <path id="Path_35285" data-name="Path 35285" d="M334.347,429.331a10.94,10.94,0,0,0,.73-4.5c0-1.127.047-2.737.1-4.341-.725-.847-2.292-2.143-3.967-.159-.734.865-2.667,6.329-3.588,9Z" transform="translate(-313.509 -276.41)" fill="#4f4f4f" stroke="#263238" stroke-linecap="round" stroke-linejoin="round" stroke-width="1"/>
      <path id="Path_35286" data-name="Path 35286" d="M335.29,420.078l.627,9h1.871l1.576-9.211A2.422,2.422,0,0,0,335.29,420.078Z" transform="translate(-317.591 -276.158)" fill="#263238" stroke="#263238" stroke-linecap="round" stroke-linejoin="round" stroke-width="1"/>
      <path id="Path_35287" data-name="Path 35287" d="M301.023,323.382s-3.247,3.56-3.56,6.6,10.886,35.17,10.886,35.17a8.239,8.239,0,0,1-1.778,3.663c-1.572,1.988-3.771,4.814-4.084,6.7a4.7,4.7,0,0,0,0,2.512h7.433s2.615-6.7,3.663-8.374.416-4.921.1-6.385-3.139-35.272-3.139-35.272S308.348,320.852,301.023,323.382Z" transform="translate(-297.456 -225.082)" fill="#fff" stroke="#263238" stroke-linecap="round" stroke-linejoin="round" stroke-width="1"/>
      <path id="Path_35288" data-name="Path 35288" d="M319.148,415.494c.908-1.455.557-4.089.239-5.716a3.274,3.274,0,0,0-2.854-.669c-2.2.524-2.62,1.871-2.62,1.871a8.239,8.239,0,0,1-1.778,3.663c-1.572,1.988-3.771,4.814-4.084,6.7a4.7,4.7,0,0,0,0,2.512h7.433S318.1,417.169,319.148,415.494Z" transform="translate(-303.021 -270.947)" fill="#263238" stroke="#263238" stroke-linecap="round" stroke-linejoin="round" stroke-width="1"/>
      <path id="Path_35289" data-name="Path 35289" d="M315.93,430.371h3.822s2.339-5.96,3.471-8.042c-.561-.515-2.259-1.829-3.892-.543-1.988,1.572-2.2,5.445-2.718,6.909C316.365,429.384,316.117,429.955,315.93,430.371Z" transform="translate(-307.288 -277.45)" fill="#4f4f4f" stroke="#263238" stroke-linecap="round" stroke-linejoin="round" stroke-width="1"/>
      <path id="Path_35290" data-name="Path 35290" d="M323.2,421.518l.421,8.584h1.357l2.3-8.374S325.188,419.637,323.2,421.518Z" transform="translate(-311.157 -277.181)" fill="#263238" stroke="#263238" stroke-linecap="round" stroke-linejoin="round" stroke-width="1"/>
      <path id="Path_35291" data-name="Path 35291" d="M310.78,224.538a127.24,127.24,0,0,1,3.3,17.922c0,1.871-5.473,12.691-5.473,12.691s-6.081,3.139-7.536,5.338a6.47,6.47,0,0,0-.416,6.7c1.048,2.091,2.615,3.036,6.081,3.663s35.586,0,35.586,0a12.6,12.6,0,0,0,1.778-10.572c-.73-3.022-1.525-5.646-2.4-9.314a9.891,9.891,0,0,0,5.965-1.993c2.512-2.1,2.62-5.338,2.62-7.742s-1.581-22.511-1.581-24.494-.094-4.5-1.965-5.969-6.306-3.742-10.292-5.857c-3.134-1.651-5.441-1.361-7.953-1.361s-5.548,1.871-5.548,1.871-13.922,3.663-14.97,4.29-.674,1.263-.29,3.574" transform="translate(-298.765 -165.264)" fill="#fff" stroke="#263238" stroke-linecap="round" stroke-linejoin="round" stroke-width="1"/>
      <path id="Path_35292" data-name="Path 35292" d="M387.915,230.64s-4.285,24.9-4.285,26.258,2.61,8.5,2.61,8.5" transform="translate(-343.317 -179.814)" fill="none" stroke="#263238" stroke-linecap="round" stroke-linejoin="round" stroke-width="1"/>
      <path id="Path_35293" data-name="Path 35293" d="M313.859,289c-1.029,3.307-5.249,11.639-5.249,11.639s-6.081,3.139-7.536,5.338a6.47,6.47,0,0,0-.416,6.7c1.048,2.091,2.615,3.036,6.081,3.663s35.586,0,35.586,0a12.6,12.6,0,0,0,1.778-10.572c-.73-3.022-1.525-5.646-2.4-9.314L339.078,289Z" transform="translate(-298.765 -209.513)" fill="#263238" stroke="#263238" stroke-miterlimit="10" stroke-width="1"/>
      <path id="Path_35294" data-name="Path 35294" d="M304.284,352.14l-5.412,40.535a.9.9,0,0,0,.774,1.008.928.928,0,0,0,.12.008h0a.893.893,0,0,0,.884-.734l7.4-40.5Z" transform="translate(-298.205 -240.676)" fill="#fff" stroke="#263238" stroke-linecap="round" stroke-linejoin="round" stroke-width="1"/>
      <path id="Path_35295" data-name="Path 35295" d="M382.742,352.14l5.412,40.535a.9.9,0,0,1-.774,1.008.929.929,0,0,1-.12.008h0a.893.893,0,0,1-.884-.734L379,352.453Z" transform="translate(-340.853 -240.676)" fill="#fff" stroke="#263238" stroke-linecap="round" stroke-linejoin="round" stroke-width="1"/>
      <path id="Path_35296" data-name="Path 35296" d="M335.834,352.14l-5.413,40.535a.9.9,0,0,0,.774,1.008.928.928,0,0,0,.12.008h0a.9.9,0,0,0,.884-.734l7.4-40.5Z" transform="translate(-314.996 -240.676)" fill="#fff" stroke="#263238" stroke-linecap="round" stroke-linejoin="round" stroke-width="1"/>
      <path id="Path_35297" data-name="Path 35297" d="M348.3,253H314.489a90.223,90.223,0,0,0-.416,14.759c.519,6.807,1.675,15.489,1.464,21.051a13.153,13.153,0,0,1-3.349,8.584h-7.536a1.356,1.356,0,0,0-1.361,1.352v0h0a1.361,1.361,0,0,0,1.361,1.361h40.7a23.178,23.178,0,0,0,3.452-13.29c-.314-7.953-3.452-16.958-2.409-23.343S348.3,253,348.3,253Z" transform="translate(-300.561 -190.655)" fill="#03759a"/>
      <path id="Path_35298" data-name="Path 35298" d="M373.083,148.651a3.58,3.58,0,0,0-2.2,2.807c-.108,1.969-.73,8.79-3.242,12.663s0,10.048,6.175,10.989,11.2-8.374,8.888-18S375.179,147.814,373.083,148.651Z" transform="translate(-334.296 -138.839)" fill="#263238" stroke="#263238" stroke-linecap="round" stroke-linejoin="round" stroke-width="1"/>
    </g>
    <g id="freepik--Floor--inject-85" transform="translate(33 235.069)">
      <line id="Line_340" data-name="Line 340" x2="204.585" fill="none" stroke="#263238" stroke-linecap="round" stroke-linejoin="round" stroke-width="1"/>
    </g>
  </g>
</svg>
